<?xml version="1.0" encoding="iso-8859-1"?>
<!-- Generator: Adobe Illustrator 17.0.0, SVG Export Plug-In . SVG Version: 6.00 Build 0)  -->
<!DOCTYPE svg PUBLIC "-//W3C//DTD SVG 1.1//EN" "http://www.w3.org/Graphics/SVG/1.1/DTD/svg11.dtd">
<svg version="1.1" id="Layer_1" xmlns="http://www.w3.org/2000/svg" xmlns:xlink="http://www.w3.org/1999/xlink" x="0px" y="0px"
	 width="32px" height="32px" viewBox="0 0 32 32" style="enable-background:new 0 0 32 32;" xml:space="preserve">
<g>
	<defs>
		<rect id="SVGID_1_" width="32" height="32"/>
	</defs>
	<clipPath id="SVGID_2_">
		<use xlink:href="#SVGID_1_"  style="overflow:visible;"/>
	</clipPath>
	<g style="clip-path:url(#SVGID_2_);">
		<defs>
			<rect id="SVGID_3_" width="32" height="32"/>
		</defs>
		<clipPath id="SVGID_4_">
			<use xlink:href="#SVGID_3_"  style="overflow:visible;"/>
		</clipPath>
		<path style="clip-path:url(#SVGID_4_);" d="M0.879,31.121C1.465,31.707,2.232,32,3,32s1.535-0.293,2.121-0.879l7.065-7.066
			C14.168,25.281,16.496,26,19,26c7.18,0,13-5.82,13-13S26.18,0,19,0S6,5.82,6,13c0,2.5,0.719,4.832,1.943,6.813l-7.064,7.066
			C-0.293,28.051-0.293,29.949,0.879,31.121 M11,13c0-4.41,3.588-8,8-8c4.41,0,8,3.59,8,8s-3.59,8-8,8C14.588,21,11,17.41,11,13"/>
	</g>
</g>
</svg>
